<svg id="visual" viewBox="0 0 1800 900" width="1800" height="900" xmlns="http://www.w3.org/2000/svg" xmlns:xlink="http://www.w3.org/1999/xlink" version="1.1"><rect x="0" y="0" width="1800" height="900" fill="#1f1f1f"></rect><path d="M1334 0L1070 0L1070 180L1220 180L1220 360L1455 360L1455 540L1018 540L1018 720L1159 720L1159 900L0 900L0 720L0 720L0 540L0 540L0 360L0 360L0 180L0 180L0 0L0 0Z" fill="#1c1c1c"></path><path d="M957 0L783 0L783 180L864 180L864 360L941 360L941 540L1066 540L1066 720L625 720L625 900L0 900L0 720L0 720L0 540L0 540L0 360L0 360L0 180L0 180L0 0L0 0Z" fill="#191919"></path><path d="M361 0L534 0L534 180L517 180L517 360L344 360L344 540L491 540L491 720L664 720L664 900L0 900L0 720L0 720L0 540L0 540L0 360L0 360L0 180L0 180L0 0L0 0Z" fill="#171717"></path></svg>