<svg id="visual" viewBox="0 0 1800 900" width="1800" height="900" xmlns="http://www.w3.org/2000/svg" xmlns:xlink="http://www.w3.org/1999/xlink" version="1.1"><g stroke-width="2" stroke-linejoin="bevel"><path d="M887 462L948 654L1073 513Z" fill="#181818" stroke="#252525"></path><path d="M948 654L1061 726L1073 513Z" fill="#1d1d1d" stroke="#252525"></path><path d="M1073 513L903 269L887 462Z" fill="#171717" stroke="#252525"></path><path d="M632 477L707 689L887 462Z" fill="#1d1d1d" stroke="#252525"></path><path d="M887 462L707 689L948 654Z" fill="#141414" stroke="#252525"></path><path d="M948 654L939 900L1061 726Z" fill="#1f1f1f" stroke="#252525"></path><path d="M1344 368L1127 261L1073 513Z" fill="#171717" stroke="#252525"></path><path d="M1073 513L1127 261L903 269Z" fill="#1a1a1a" stroke="#252525"></path><path d="M1061 726L1289 613L1073 513Z" fill="#141414" stroke="#252525"></path><path d="M653 239L632 477L887 462Z" fill="#1f1f1f" stroke="#252525"></path><path d="M749 900L939 900L948 654Z" fill="#161616" stroke="#252525"></path><path d="M1061 726L1109 900L1289 613Z" fill="#1d1d1d" stroke="#252525"></path><path d="M939 900L1109 900L1061 726Z" fill="#1e1e1e" stroke="#252525"></path><path d="M707 689L749 900L948 654Z" fill="#1f1f1f" stroke="#252525"></path><path d="M463 726L749 900L707 689Z" fill="#1f1f1f" stroke="#252525"></path><path d="M1289 613L1344 368L1073 513Z" fill="#171717" stroke="#252525"></path><path d="M903 269L653 239L887 462Z" fill="#161616" stroke="#252525"></path><path d="M902 0L653 239L903 269Z" fill="#1d1d1d" stroke="#252525"></path><path d="M1344 368L1315 269L1127 261Z" fill="#1a1a1a" stroke="#252525"></path><path d="M1074 0L902 0L903 269Z" fill="#1d1d1d" stroke="#252525"></path><path d="M433 478L463 726L632 477Z" fill="#161616" stroke="#252525"></path><path d="M632 477L463 726L707 689Z" fill="#161616" stroke="#252525"></path><path d="M484 226L433 478L632 477Z" fill="#1d1d1d" stroke="#252525"></path><path d="M1074 0L903 269L1127 261Z" fill="#1a1a1a" stroke="#252525"></path><path d="M1315 269L1074 0L1127 261Z" fill="#1e1e1e" stroke="#252525"></path><path d="M1109 900L1397 900L1289 613Z" fill="#161616" stroke="#252525"></path><path d="M1599 440L1503 199L1344 368Z" fill="#181818" stroke="#252525"></path><path d="M673 0L484 226L653 239Z" fill="#1a1a1a" stroke="#252525"></path><path d="M653 239L484 226L632 477Z" fill="#1a1a1a" stroke="#252525"></path><path d="M902 0L673 0L653 239Z" fill="#161616" stroke="#252525"></path><path d="M1344 368L1503 199L1315 269Z" fill="#131313" stroke="#252525"></path><path d="M1315 269L1433 0L1074 0Z" fill="#1d1d1d" stroke="#252525"></path><path d="M1599 440L1344 368L1289 613Z" fill="#141414" stroke="#252525"></path><path d="M1659 681L1599 440L1289 613Z" fill="#1f1f1f" stroke="#252525"></path><path d="M203 709L420 900L463 726Z" fill="#131313" stroke="#252525"></path><path d="M463 726L420 900L749 900Z" fill="#141414" stroke="#252525"></path><path d="M1397 900L1659 681L1289 613Z" fill="#1a1a1a" stroke="#252525"></path><path d="M1564 900L1659 681L1397 900Z" fill="#131313" stroke="#252525"></path><path d="M1534 0L1433 0L1503 199Z" fill="#1d1d1d" stroke="#252525"></path><path d="M1503 199L1433 0L1315 269Z" fill="#171717" stroke="#252525"></path><path d="M484 226L206 375L433 478Z" fill="#131313" stroke="#252525"></path><path d="M433 478L203 709L463 726Z" fill="#171717" stroke="#252525"></path><path d="M673 0L422 0L484 226Z" fill="#191919" stroke="#252525"></path><path d="M220 252L206 375L484 226Z" fill="#131313" stroke="#252525"></path><path d="M206 375L203 709L433 478Z" fill="#181818" stroke="#252525"></path><path d="M1800 206L1534 0L1503 199Z" fill="#1f1f1f" stroke="#252525"></path><path d="M1800 206L1503 199L1599 440Z" fill="#1a1a1a" stroke="#252525"></path><path d="M304 0L220 252L484 226Z" fill="#171717" stroke="#252525"></path><path d="M1800 757L1800 510L1659 681Z" fill="#1f1f1f" stroke="#252525"></path><path d="M1659 681L1800 510L1599 440Z" fill="#1f1f1f" stroke="#252525"></path><path d="M422 0L304 0L484 226Z" fill="#191919" stroke="#252525"></path><path d="M1564 900L1800 757L1659 681Z" fill="#161616" stroke="#252525"></path><path d="M0 672L153 900L203 709Z" fill="#1a1a1a" stroke="#252525"></path><path d="M203 709L153 900L420 900Z" fill="#131313" stroke="#252525"></path><path d="M1800 510L1800 206L1599 440Z" fill="#191919" stroke="#252525"></path><path d="M1564 900L1800 900L1800 757Z" fill="#1d1d1d" stroke="#252525"></path><path d="M0 174L0 428L206 375Z" fill="#181818" stroke="#252525"></path><path d="M206 375L0 428L203 709Z" fill="#191919" stroke="#252525"></path><path d="M0 174L206 375L220 252Z" fill="#171717" stroke="#252525"></path><path d="M0 428L0 672L203 709Z" fill="#1e1e1e" stroke="#252525"></path><path d="M1800 206L1800 0L1534 0Z" fill="#1e1e1e" stroke="#252525"></path><path d="M0 672L0 900L153 900Z" fill="#191919" stroke="#252525"></path><path d="M304 0L0 174L220 252Z" fill="#181818" stroke="#252525"></path><path d="M304 0L0 0L0 174Z" fill="#161616" stroke="#252525"></path></g></svg>