<svg id="visual" viewBox="0 0 2400 800" width="2400" height="800" xmlns="http://www.w3.org/2000/svg" xmlns:xlink="http://www.w3.org/1999/xlink" version="1.1"><rect x="0" y="0" width="2400" height="800" fill="#1e1e1e"></rect><path d="M2201 0L2224 0L2224 133L1875 133L1875 267L2388 267L2388 400L2172 400L2172 533L1440 533L1440 667L1545 667L1545 800L0 800L0 667L0 667L0 533L0 533L0 400L0 400L0 267L0 267L0 133L0 133L0 0L0 0Z" fill="#1e1e1e"></path><path d="M1538 0L1609 0L1609 133L1838 133L1838 267L1826 267L1826 400L1978 400L1978 533L1140 533L1140 667L2039 667L2039 800L0 800L0 667L0 667L0 533L0 533L0 400L0 400L0 267L0 267L0 133L0 133L0 0L0 0Z" fill="#1c1c1c"></path><path d="M1534 0L1500 0L1500 133L1181 133L1181 267L1451 267L1451 400L792 400L792 533L1505 533L1505 667L1366 667L1366 800L0 800L0 667L0 667L0 533L0 533L0 400L0 400L0 267L0 267L0 133L0 133L0 0L0 0Z" fill="#1b1b1b"></path><path d="M517 0L614 0L614 133L1271 133L1271 267L677 267L677 400L1213 400L1213 533L1363 533L1363 667L867 667L867 800L0 800L0 667L0 667L0 533L0 533L0 400L0 400L0 267L0 267L0 133L0 133L0 0L0 0Z" fill="#191919"></path><path d="M319 0L1013 0L1013 133L969 133L969 267L783 267L783 400L670 400L670 533L756 533L756 667L400 667L400 800L0 800L0 667L0 667L0 533L0 533L0 400L0 400L0 267L0 267L0 133L0 133L0 0L0 0Z" fill="#181818"></path><path d="M275 0L38 0L38 133L594 133L594 267L91 267L91 400L180 400L180 533L563 533L563 667L482 667L482 800L0 800L0 667L0 667L0 533L0 533L0 400L0 400L0 267L0 267L0 133L0 133L0 0L0 0Z" fill="#171717"></path></svg>