<svg id="visual" viewBox="0 0 2400 630" width="2400" height="630" xmlns="http://www.w3.org/2000/svg" xmlns:xlink="http://www.w3.org/1999/xlink" version="1.1"><rect x="0" y="0" width="2400" height="630" fill="#1f1f1f"></rect><path d="M1779 0L1426 0L1426 126L1626 126L1626 252L1939 252L1939 378L1357 378L1357 504L1545 504L1545 630L0 630L0 504L0 504L0 378L0 378L0 252L0 252L0 126L0 126L0 0L0 0Z" fill="#1c1c1c"></path><path d="M1276 0L1043 0L1043 126L1152 126L1152 252L1255 252L1255 378L1421 378L1421 504L833 504L833 630L0 630L0 504L0 504L0 378L0 378L0 252L0 252L0 126L0 126L0 0L0 0Z" fill="#191919"></path><path d="M481 0L712 0L712 126L689 126L689 252L459 252L459 378L654 378L654 504L885 504L885 630L0 630L0 504L0 504L0 378L0 378L0 252L0 252L0 126L0 126L0 0L0 0Z" fill="#171717"></path></svg>