<svg id="visual" viewBox="0 0 1800 900" width="1800" height="900" xmlns="http://www.w3.org/2000/svg" xmlns:xlink="http://www.w3.org/1999/xlink" version="1.1"><rect x="0" y="0" width="1800" height="900" fill="#1f1f1f"></rect><path d="M1328 0L1173 0L1173 129L1210 129L1210 257L1286 257L1286 386L1519 386L1519 514L1193 514L1193 643L1337 643L1337 771L1516 771L1516 900L0 900L0 771L0 771L0 643L0 643L0 514L0 514L0 386L0 386L0 257L0 257L0 129L0 129L0 0L0 0Z" fill="#1c1c1c"></path><path d="M1334 0L1210 0L1210 129L1174 129L1174 257L1062 257L1062 386L1272 386L1272 514L1193 514L1193 643L1094 643L1094 771L1184 771L1184 900L0 900L0 771L0 771L0 643L0 643L0 514L0 514L0 386L0 386L0 257L0 257L0 129L0 129L0 0L0 0Z" fill="#1b1b1b"></path><path d="M927 0L1143 0L1143 129L853 129L853 257L876 257L876 386L1142 386L1142 514L899 514L899 643L944 643L944 771L879 771L879 900L0 900L0 771L0 771L0 643L0 643L0 514L0 514L0 386L0 386L0 257L0 257L0 129L0 129L0 0L0 0Z" fill="#1a1a1a"></path><path d="M697 0L944 0L944 129L890 129L890 257L924 257L924 386L944 386L944 514L904 514L904 643L903 643L903 771L719 771L719 900L0 900L0 771L0 771L0 643L0 643L0 514L0 514L0 386L0 386L0 257L0 257L0 129L0 129L0 0L0 0Z" fill="#191919"></path><path d="M652 0L636 0L636 129L524 129L524 257L645 257L645 386L620 386L620 514L463 514L463 643L511 643L511 771L651 771L651 900L0 900L0 771L0 771L0 643L0 643L0 514L0 514L0 386L0 386L0 257L0 257L0 129L0 129L0 0L0 0Z" fill="#181818"></path><path d="M435 0L452 0L452 129L484 129L484 257L433 257L433 386L326 386L326 514L381 514L381 643L344 643L344 771L386 771L386 900L0 900L0 771L0 771L0 643L0 643L0 514L0 514L0 386L0 386L0 257L0 257L0 129L0 129L0 0L0 0Z" fill="#181818"></path><path d="M142 0L256 0L256 129L275 129L275 257L173 257L173 386L191 386L191 514L229 514L229 643L305 643L305 771L223 771L223 900L0 900L0 771L0 771L0 643L0 643L0 514L0 514L0 386L0 386L0 257L0 257L0 129L0 129L0 0L0 0Z" fill="#171717"></path></svg>