<svg id="visual" viewBox="0 0 3200 1800" width="3200" height="1800" xmlns="http://www.w3.org/2000/svg" xmlns:xlink="http://www.w3.org/1999/xlink" version="1.1"><g stroke-width="1" stroke-linejoin="bevel"><path d="M1583 1142L1243 999L1172 1434Z" fill="#191919" stroke="#141414"></path><path d="M1172 1434L1676 1516L1583 1142Z" fill="#171717" stroke="#141414"></path><path d="M1172 1434L1559 1800L1676 1516Z" fill="#1a1a1a" stroke="#141414"></path><path d="M1243 999L795 1033L1172 1434Z" fill="#1a1a1a" stroke="#141414"></path><path d="M1172 1434L763 1525L1215 1800Z" fill="#1b1b1b" stroke="#141414"></path><path d="M1657 663L1209 667L1243 999Z" fill="#1d1d1d" stroke="#141414"></path><path d="M1243 999L1209 667L795 1033Z" fill="#1d1d1d" stroke="#141414"></path><path d="M1215 1800L1559 1800L1172 1434Z" fill="#191919" stroke="#141414"></path><path d="M795 1033L763 1525L1172 1434Z" fill="#171717" stroke="#141414"></path><path d="M1951 778L1657 663L1583 1142Z" fill="#181818" stroke="#141414"></path><path d="M1583 1142L1657 663L1243 999Z" fill="#1b1b1b" stroke="#141414"></path><path d="M2042 1800L1986 1401L1676 1516Z" fill="#1f1f1f" stroke="#141414"></path><path d="M1676 1516L1986 1401L1583 1142Z" fill="#131313" stroke="#141414"></path><path d="M1986 1401L2040 994L1583 1142Z" fill="#131313" stroke="#141414"></path><path d="M2040 994L1951 778L1583 1142Z" fill="#1a1a1a" stroke="#141414"></path><path d="M763 1525L754 1800L1215 1800Z" fill="#1b1b1b" stroke="#141414"></path><path d="M1209 667L725 655L795 1033Z" fill="#141414" stroke="#141414"></path><path d="M795 1033L356 1436L763 1525Z" fill="#1d1d1d" stroke="#141414"></path><path d="M763 1525L341 1800L754 1800Z" fill="#1b1b1b" stroke="#141414"></path><path d="M864 388L725 655L1209 667Z" fill="#1f1f1f" stroke="#141414"></path><path d="M1559 1800L2042 1800L1676 1516Z" fill="#1f1f1f" stroke="#141414"></path><path d="M1986 1401L2374 1084L2040 994Z" fill="#131313" stroke="#141414"></path><path d="M1602 282L1209 667L1657 663Z" fill="#161616" stroke="#141414"></path><path d="M1602 282L1207 321L1209 667Z" fill="#171717" stroke="#141414"></path><path d="M1207 321L864 388L1209 667Z" fill="#1f1f1f" stroke="#141414"></path><path d="M1980 274L1602 282L1657 663Z" fill="#161616" stroke="#141414"></path><path d="M324 1012L356 1436L795 1033Z" fill="#1b1b1b" stroke="#141414"></path><path d="M387 333L481 709L725 655Z" fill="#141414" stroke="#141414"></path><path d="M725 655L481 709L795 1033Z" fill="#191919" stroke="#141414"></path><path d="M2040 994L2318 689L1951 778Z" fill="#1f1f1f" stroke="#141414"></path><path d="M1951 778L1980 274L1657 663Z" fill="#131313" stroke="#141414"></path><path d="M2472 1509L2374 1084L1986 1401Z" fill="#131313" stroke="#141414"></path><path d="M481 709L324 1012L795 1033Z" fill="#1b1b1b" stroke="#141414"></path><path d="M2374 1084L2318 689L2040 994Z" fill="#1b1b1b" stroke="#141414"></path><path d="M0 1489L341 1800L356 1436Z" fill="#1b1b1b" stroke="#141414"></path><path d="M356 1436L341 1800L763 1525Z" fill="#191919" stroke="#141414"></path><path d="M2319 432L1980 274L1951 778Z" fill="#191919" stroke="#141414"></path><path d="M2042 1800L2472 1509L1986 1401Z" fill="#1e1e1e" stroke="#141414"></path><path d="M2772 671L2319 432L2318 689Z" fill="#181818" stroke="#141414"></path><path d="M1207 321L854 0L864 388Z" fill="#141414" stroke="#141414"></path><path d="M864 388L387 333L725 655Z" fill="#1d1d1d" stroke="#141414"></path><path d="M1602 282L1236 0L1207 321Z" fill="#141414" stroke="#141414"></path><path d="M1560 0L1236 0L1602 282Z" fill="#131313" stroke="#141414"></path><path d="M2042 1800L2457 1800L2472 1509Z" fill="#181818" stroke="#141414"></path><path d="M1980 274L1560 0L1602 282Z" fill="#1b1b1b" stroke="#141414"></path><path d="M2772 671L2318 689L2374 1084Z" fill="#1a1a1a" stroke="#141414"></path><path d="M2318 689L2319 432L1951 778Z" fill="#1d1d1d" stroke="#141414"></path><path d="M1980 274L2026 0L1560 0Z" fill="#1f1f1f" stroke="#141414"></path><path d="M0 749L0 1113L324 1012Z" fill="#171717" stroke="#141414"></path><path d="M480 0L387 333L864 388Z" fill="#181818" stroke="#141414"></path><path d="M1236 0L854 0L1207 321Z" fill="#171717" stroke="#141414"></path><path d="M0 749L324 1012L481 709Z" fill="#1b1b1b" stroke="#141414"></path><path d="M324 1012L0 1113L356 1436Z" fill="#191919" stroke="#141414"></path><path d="M0 1113L0 1489L356 1436Z" fill="#131313" stroke="#141414"></path><path d="M2415 0L2026 0L1980 274Z" fill="#181818" stroke="#141414"></path><path d="M387 333L0 749L481 709Z" fill="#171717" stroke="#141414"></path><path d="M2721 1800L2780 1429L2472 1509Z" fill="#1a1a1a" stroke="#141414"></path><path d="M2472 1509L2780 1429L2374 1084Z" fill="#181818" stroke="#141414"></path><path d="M0 1489L0 1800L341 1800Z" fill="#1f1f1f" stroke="#141414"></path><path d="M2780 1429L2789 1065L2374 1084Z" fill="#1f1f1f" stroke="#141414"></path><path d="M2319 432L2415 0L1980 274Z" fill="#141414" stroke="#141414"></path><path d="M2457 1800L2721 1800L2472 1509Z" fill="#1f1f1f" stroke="#141414"></path><path d="M854 0L480 0L864 388Z" fill="#191919" stroke="#141414"></path><path d="M387 333L0 393L0 749Z" fill="#1b1b1b" stroke="#141414"></path><path d="M2789 1065L2772 671L2374 1084Z" fill="#191919" stroke="#141414"></path><path d="M0 0L0 393L387 333Z" fill="#131313" stroke="#141414"></path><path d="M2819 351L2415 0L2319 432Z" fill="#1d1d1d" stroke="#141414"></path><path d="M3200 412L2819 351L2772 671Z" fill="#141414" stroke="#141414"></path><path d="M2772 671L2819 351L2319 432Z" fill="#1f1f1f" stroke="#141414"></path><path d="M3200 721L2772 671L2789 1065Z" fill="#171717" stroke="#141414"></path><path d="M480 0L0 0L387 333Z" fill="#171717" stroke="#141414"></path><path d="M2780 1429L3200 1162L2789 1065Z" fill="#1f1f1f" stroke="#141414"></path><path d="M3200 1468L3200 1162L2780 1429Z" fill="#171717" stroke="#141414"></path><path d="M3200 1800L3200 1468L2780 1429Z" fill="#131313" stroke="#141414"></path><path d="M3200 0L2806 0L2819 351Z" fill="#181818" stroke="#141414"></path><path d="M2819 351L2806 0L2415 0Z" fill="#161616" stroke="#141414"></path><path d="M3200 1162L3200 721L2789 1065Z" fill="#171717" stroke="#141414"></path><path d="M2721 1800L3200 1800L2780 1429Z" fill="#161616" stroke="#141414"></path><path d="M3200 721L3200 412L2772 671Z" fill="#171717" stroke="#141414"></path><path d="M3200 412L3200 0L2819 351Z" fill="#171717" stroke="#141414"></path></g></svg>